<svg width="32" height="25" viewBox="0 0 32 25" fill="none" xmlns="http://www.w3.org/2000/svg">
<path d="M7.00458 11.6481V2.34521L16 9.09178L24.9954 2.34521V11.6481L16 18.3947L7.00458 11.6481Z" fill="#FBBC05"/>
<path d="M7.00456 11.6481L0.257996 6.58813V22.3535C0.257996 23.5424 1.22137 24.4999 2.40436 24.4999H7.00456V11.6481Z" fill="#FBBC05"/>
<path d="M7.00456 2.34526L5.40869 1.15056C3.28575 -0.442382 0.257996 1.0715 0.257996 3.72444V6.58822L7.00456 11.6481V2.34526Z" fill="#FBBC05"/>
<path d="M24.9954 11.6481V24.4999H29.5956C30.7845 24.4999 31.742 23.5365 31.742 22.3535V6.58813L24.9954 11.6481Z" fill="#FBBC05"/>
<path d="M26.5913 1.15056L24.9954 2.34526V11.6481L31.742 6.58822V3.72444C31.742 1.0715 28.7113 -0.442382 26.5913 1.15056Z" fill="#FBBC05"/>
</svg>
