<svg width="118" height="35" viewBox="0 0 118 35" fill="none" xmlns="http://www.w3.org/2000/svg">
<path d="M0 0.291374V7.22756V14.1637V21.0999V28.0361V34.9723H6.93619H34.6809V28.0361H6.93619V21.0999H27.7448V14.1637H6.93619V7.22756H34.6809V0.291374H6.93619H0Z" fill="#E8EAF6"/>
<path d="M41.6171 0.291309V7.2275V14.1637V21.0999V34.9722H48.5533V21.0999H69.3619V14.1637H48.5533V7.2275H76.2981V0.291309H48.5533H41.6171Z" fill="#E8EAF6"/>
<path d="M117.943 5.1744L113.032 0.263573L100.658 12.6447L88.0133 0L83.1094 4.90388L95.7541 17.5486L83.2065 30.0892L88.1173 35L100.658 22.4524L112.935 34.7295L117.839 29.8256L105.562 17.5486L117.943 5.1744Z" fill="#E8EAF6"/>
</svg>
