<svg width="101" height="100" viewBox="0 0 101 100" fill="none" xmlns="http://www.w3.org/2000/svg">
<rect x="0.333374" width="100" height="100" rx="30" fill="url(#paint0_linear_195_64)"/>
<path d="M69.8225 54.8064L66.2337 52.8226C66.596 50.9516 66.596 49.0323 66.2337 47.1613L69.8225 45.1774C70.2352 44.9516 70.4206 44.4839 70.2858 44.0484C69.3507 41.1775 67.7585 38.5807 65.6777 36.4194C65.3576 36.0888 64.8353 36.0081 64.431 36.2339L60.8422 38.2178C59.3343 36.9759 57.5989 36.0162 55.7203 35.3872V31.4275C55.7203 30.9759 55.3918 30.5807 54.9284 30.4839C51.8367 29.8227 48.6692 29.8549 45.7292 30.4839C45.2658 30.5807 44.9373 30.9759 44.9373 31.4275V35.3952C43.0671 36.0323 41.3317 36.992 39.8154 38.2259L36.2351 36.242C35.8223 36.0162 35.3084 36.0888 34.9883 36.4275C32.9075 38.5807 31.3153 41.1775 30.3802 44.0565C30.237 44.492 30.4308 44.9597 30.8436 45.1855L34.4323 47.1694C34.07 49.0403 34.07 50.9597 34.4323 52.8306L30.8436 54.8145C30.4308 55.0403 30.2454 55.508 30.3802 55.9435C31.3153 58.8145 32.9075 61.4112 34.9883 63.5725C35.3084 63.9032 35.8307 63.9838 36.2351 63.758L39.8238 61.7741C41.3317 63.0161 43.0671 63.9758 44.9457 64.6048V68.5725C44.9457 69.0241 45.2743 69.4193 45.7376 69.5161C48.8293 70.1773 51.9968 70.1451 54.9369 69.5161C55.4002 69.4193 55.7287 69.0241 55.7287 68.5725V64.6048C57.5989 63.9677 59.3343 63.008 60.8507 61.7741L64.4394 63.758C64.8522 63.9838 65.366 63.9112 65.6862 63.5725C67.767 61.4193 69.3591 58.8225 70.2942 55.9435C70.4206 55.5 70.2352 55.0322 69.8225 54.8064V54.8064ZM50.3288 56.4435C46.6137 56.4435 43.5894 53.5484 43.5894 49.9919C43.5894 46.4355 46.6137 43.5403 50.3288 43.5403C54.0439 43.5403 57.0682 46.4355 57.0682 49.9919C57.0682 53.5484 54.0439 56.4435 50.3288 56.4435Z" fill="#313E57"/>
<defs>
<linearGradient id="paint0_linear_195_64" x1="0.333374" y1="0" x2="100.333" y2="100" gradientUnits="userSpaceOnUse">
<stop stop-color="#E8EAF6"/>
<stop offset="1" stop-color="#B5B9CD"/>
</linearGradient>
</defs>
</svg>
