<svg width="100" height="100" viewBox="0 0 100 100" fill="none" xmlns="http://www.w3.org/2000/svg">
<rect width="100" height="100" rx="30" fill="url(#paint0_linear_195_43)"/>
<path d="M48.4284 30.0396H54.965V59.9987C51.6168 60.632 49.152 60.8812 46.4852 60.8812C38.5017 60.8729 34.3459 57.3062 34.3459 50.4562C34.3459 43.8562 38.754 39.5729 45.585 39.5729C46.645 39.5729 47.4526 39.6563 48.4284 39.9062V30.0396ZM48.6575 45.3052C47.8919 45.0552 47.2611 44.9718 46.4534 44.9718C43.1473 44.9718 41.2377 46.9885 41.2377 50.5226C41.2377 53.9635 43.0633 55.8634 46.4115 55.8634C47.1348 55.8634 47.7237 55.8227 48.6575 55.6977V45.3052V45.3052Z" fill="#313E57"/>
<path d="M65.6541 40.3772V55.3773C65.6541 60.5431 65.2672 63.0273 64.1315 65.169C63.0714 67.2281 61.675 68.5265 58.7895 69.9606L52.7241 67.1023C55.6096 65.7614 57.006 64.5765 57.8978 62.7682C58.8315 60.919 59.1259 58.7773 59.1259 53.1439V40.3773H65.6541V40.3772ZM58.4672 30.0396H65.0038V36.6812H58.4672V30.0396Z" fill="#313E57"/>
<defs>
<linearGradient id="paint0_linear_195_43" x1="0" y1="0" x2="100" y2="100" gradientUnits="userSpaceOnUse">
<stop stop-color="#E8EAF6"/>
<stop offset="1" stop-color="#B5B9CD"/>
</linearGradient>
</defs>
</svg>
