<svg width="100" height="100" viewBox="0 0 100 100" fill="none" xmlns="http://www.w3.org/2000/svg">
<rect width="100" height="100" rx="30" fill="url(#paint0_linear_195_33)"/>
<path d="M69.456 64.5851L61.6664 56.7954C61.3148 56.4438 60.8382 56.2485 60.3382 56.2485H59.0646C61.221 53.4905 62.5024 50.0215 62.5024 46.2478C62.5024 37.2706 55.2284 29.9966 46.2512 29.9966C37.274 29.9966 30 37.2706 30 46.2478C30 55.225 37.274 62.499 46.2512 62.499C50.0249 62.499 53.4939 61.2176 56.2519 59.0612V60.3347C56.2519 60.8348 56.4472 61.3114 56.7988 61.663L64.5885 69.4526C65.3229 70.187 66.5105 70.187 67.2371 69.4526L69.4482 67.2415C70.1826 66.5071 70.1826 65.3195 69.456 64.5851ZM46.2512 56.2485C40.7273 56.2485 36.2505 51.7794 36.2505 46.2478C36.2505 40.7239 40.7195 36.247 46.2512 36.247C51.775 36.247 56.2519 40.7161 56.2519 46.2478C56.2519 51.7716 51.7828 56.2485 46.2512 56.2485Z" fill="#313E57"/>
<defs>
<linearGradient id="paint0_linear_195_33" x1="0" y1="0" x2="100" y2="100" gradientUnits="userSpaceOnUse">
<stop stop-color="#E8EAF6"/>
<stop offset="1" stop-color="#B5B9CD"/>
</linearGradient>
</defs>
</svg>
